<svg width="32.000000" height="32.000000" viewBox="0 0 32 32" fill="none" xmlns="http://www.w3.org/2000/svg" xmlns:xlink="http://www.w3.org/1999/xlink">
	<desc>
			Created with Pixso.
	</desc>
	<defs>
		<clipPath id="clip12565_28574">
			<rect id="edit" rx="0.000000" width="31.000000" height="31.000000" transform="translate(0.500000 0.500000)" fill="white" fill-opacity="0"/>
		</clipPath>
	</defs>
	<rect id="edit" rx="0.000000" width="31.000000" height="31.000000" transform="translate(0.500000 0.500000)" fill="#FFFFFF" fill-opacity="0"/>
	<g clip-path="url(#clip12565_28574)">
		<path id="Vector" d="M16 26.66L28 26.66" stroke="#A3A3A3" stroke-opacity="1.000000" stroke-width="2.000000" stroke-linejoin="round" stroke-linecap="round"/>
		<path id="Vector" d="M24 3.83C24.37 3.83 24.73 3.91 25.08 4.05C25.42 4.19 25.73 4.4 26 4.66C26.26 4.92 26.47 5.24 26.61 5.58C26.75 5.92 26.82 6.29 26.82 6.66C26.82 7.03 26.75 7.4 26.61 7.74C26.47 8.09 26.26 8.4 26 8.66L9.33 25.33L4 26.66L5.33 21.33L22 4.66C22.53 4.13 23.25 3.83 24 3.83Z" stroke="#A3A3A3" stroke-opacity="1.000000" stroke-width="2.000000" stroke-linejoin="round"/>
	</g>
</svg>
