<svg width="21.000000" height="21.000000" viewBox="0 0 21 21" fill="none" xmlns="http://www.w3.org/2000/svg" xmlns:xlink="http://www.w3.org/1999/xlink">
	<desc>
			Created with Pixso.
	</desc>
	<defs>
		<clipPath id="clip179_4276">
			<rect id="Property 1=Default" rx="0.000000" width="20.000000" height="20.000000" transform="translate(0.500000 0.500000)" fill="white" fill-opacity="0"/>
		</clipPath>
	</defs>
	<rect id="Property 1=Default" rx="0.000000" width="20.000000" height="20.000000" transform="translate(0.500000 0.500000)" fill="#FFFFFF" fill-opacity="0"/>
	<g clip-path="url(#clip179_4276)">
		<path id="Vector" d="M17.47 2.66C17.41 2.69 16.87 3.21 16.25 3.82L15.14 4.93L14.61 4.73C13.76 4.39 12.94 4.17 11.99 4.03C11.24 3.92 9.65 3.93 8.86 4.05C6.77 4.37 4.92 5.21 3.18 6.61C2.62 7.06 1.57 8.11 1.13 8.67C0.64 9.28 0.05 10.18 0.01 10.35C-0.03 10.6 0.03 10.76 0.37 11.27C1.35 12.76 2.76 14.17 4.18 15.11C4.42 15.27 4.62 15.4 4.63 15.41C4.64 15.41 4.2 15.87 3.66 16.42C2.81 17.26 2.67 17.43 2.64 17.57C2.6 17.81 2.66 18 2.82 18.17C2.99 18.34 3.18 18.4 3.43 18.35C3.57 18.33 4.36 17.55 10.94 10.98C16.34 5.57 18.3 3.59 18.33 3.49C18.42 3.21 18.33 2.92 18.08 2.73C17.95 2.64 17.62 2.6 17.47 2.66ZM11.89 5.35C12.6 5.46 13.38 5.66 14 5.9L14.12 5.95L13.45 6.62L12.78 7.29L12.67 7.21C12.45 7.06 11.78 6.76 11.46 6.67C11.03 6.56 10.05 6.55 9.62 6.66C8.87 6.84 8.27 7.18 7.72 7.73C7.18 8.27 6.84 8.87 6.65 9.62C6.54 10.06 6.55 10.99 6.67 11.44C6.77 11.78 7.04 12.4 7.21 12.65L7.29 12.78L6.46 13.61L5.63 14.44L5.24 14.2C3.87 13.34 2.5 12.04 1.64 10.8L1.43 10.5L1.63 10.2C2.36 9.15 3.62 7.89 4.69 7.13C6.14 6.11 7.84 5.47 9.53 5.29C10.05 5.24 11.37 5.27 11.89 5.35ZM11.08 7.95C11.33 8.01 11.81 8.21 11.81 8.25C11.81 8.26 11.01 9.06 10.03 10.04L8.25 11.82L8.14 11.61C7.99 11.31 7.87 10.82 7.87 10.5C7.87 8.82 9.49 7.54 11.08 7.95Z" fill="#FFFFFF" fill-opacity="0.500000" fill-rule="nonzero"/>
		<path id="Vector" d="M16.96 6.8C16.72 7.04 16.53 7.26 16.53 7.28C16.53 7.3 16.69 7.44 16.89 7.59C17.73 8.23 18.83 9.42 19.43 10.3L19.57 10.5L19.4 10.74C18.69 11.78 17.46 13.03 16.38 13.8C14.53 15.13 12.36 15.81 10.21 15.73C9.53 15.71 9.33 15.68 8.64 15.56L8.27 15.49L7.75 16.01C7.36 16.4 7.23 16.55 7.27 16.57C7.39 16.64 8.36 16.86 8.92 16.94C9.68 17.06 11.25 17.07 11.99 16.96C14.64 16.57 16.85 15.43 18.86 13.41C19.58 12.69 20.06 12.12 20.58 11.32C21.12 10.54 21.12 10.47 20.64 9.73C20.17 9.03 19.55 8.27 18.88 7.6C18.32 7.03 17.54 6.35 17.45 6.35C17.43 6.35 17.21 6.55 16.96 6.8Z" fill="#FFFFFF" fill-opacity="0.500000" fill-rule="nonzero"/>
		<path id="Vector" d="M13.68 10.08L13.11 10.65L13.06 10.97C12.99 11.35 12.76 11.85 12.51 12.15C12.12 12.61 11.53 12.96 10.97 13.06L10.65 13.11L10.07 13.69C9.75 14.01 9.51 14.28 9.52 14.29C9.57 14.34 10.19 14.43 10.5 14.43C11.54 14.44 12.49 14.03 13.26 13.26C14.05 12.47 14.41 11.64 14.41 10.53C14.41 10.02 14.34 9.51 14.28 9.51C14.26 9.51 14 9.76 13.68 10.08Z" fill="#FFFFFF" fill-opacity="0.500000" fill-rule="nonzero"/>
	</g>
</svg>
