<svg width="24.000000" height="24.000000" viewBox="0 0 24 24" fill="none" xmlns="http://www.w3.org/2000/svg" xmlns:xlink="http://www.w3.org/1999/xlink">
	<desc>
			Created with Pixso.
	</desc>
	<defs/>
	<path id="Vector" d="M22.86 9.06L17.64 3.18C17.59 3.12 17.52 3.08 17.45 3.04C17.38 3.01 17.3 3 17.22 3L6.77 3C6.69 2.99 6.62 3.01 6.54 3.04C6.47 3.07 6.41 3.12 6.35 3.18L1.13 9.06C1.04 9.16 0.99 9.29 1 9.43C1 9.56 1.05 9.69 1.14 9.79L11.59 20.82C11.64 20.87 11.7 20.92 11.77 20.95C11.84 20.98 11.92 21 12 21C12.07 21 12.15 20.98 12.22 20.95C12.29 20.92 12.35 20.87 12.41 20.82L22.85 9.79C22.94 9.7 22.99 9.57 23 9.43C23 9.3 22.95 9.17 22.86 9.06ZM7.14 9.98L10.37 17.92L2.84 9.98L7.14 9.98ZM15.65 9.98L12 18.97L8.35 9.98L15.65 9.98ZM8.64 8.87L12 4.46L15.35 8.87L8.64 8.87ZM16.85 9.98L21.15 9.98L13.62 17.92L16.85 9.98ZM21.21 8.87L16.75 8.87L13.11 4.1L16.96 4.1L21.21 8.87ZM7.03 4.1L10.88 4.1L7.24 8.87L2.79 8.87L7.03 4.1Z" fill="#FFFFFF" fill-opacity="1.000000" fill-rule="nonzero"/>
	<path id="Vector" d="M22.86 9.06L17.64 3.18C17.59 3.12 17.52 3.08 17.45 3.04C17.38 3.01 17.3 3 17.22 3L6.77 3C6.69 2.99 6.62 3.01 6.54 3.04C6.47 3.07 6.41 3.12 6.35 3.18L1.13 9.06C1.04 9.16 0.99 9.29 1 9.43C1 9.56 1.05 9.69 1.14 9.79L11.59 20.82C11.64 20.87 11.7 20.92 11.77 20.95C11.84 20.98 11.92 21 12 21C12.07 21 12.15 20.98 12.22 20.95C12.29 20.92 12.35 20.87 12.41 20.82L22.85 9.79C22.94 9.7 22.99 9.57 23 9.43C23 9.3 22.95 9.17 22.86 9.06ZM17.48 3.21Q17.52 3.23 17.55 3.27L17.55 3.27L22.77 9.15Q22.82 9.21 22.85 9.28Q22.87 9.35 22.87 9.43Q22.87 9.51 22.84 9.58Q22.81 9.65 22.76 9.71L12.31 20.73Q12.29 20.76 12.25 20.79Q12.22 20.82 12.17 20.83Q12.13 20.85 12.09 20.86Q12.04 20.87 12 20.87Q11.95 20.87 11.9 20.86Q11.86 20.85 11.82 20.83Q11.78 20.82 11.74 20.79Q11.71 20.76 11.68 20.73L1.23 9.71Q1.18 9.65 1.15 9.57Q1.12 9.5 1.12 9.43Q1.12 9.35 1.14 9.28Q1.17 9.2 1.22 9.14L6.45 3.26Q6.47 3.23 6.51 3.21Q6.55 3.18 6.59 3.16Q6.63 3.14 6.67 3.13Q6.72 3.12 6.77 3.12L17.22 3.12Q17.27 3.12 17.31 3.13Q17.36 3.14 17.4 3.16Q17.44 3.18 17.48 3.21ZM7.3 9L10.98 4.17L11.13 3.97L6.97 3.97L2.51 9L7.3 9ZM12.86 3.97L16.65 8.95L16.69 9L21.48 9L17.02 3.97L12.86 3.97ZM10.72 4.1L7.03 4.1L2.9 8.75L2.79 8.87L7.24 8.87L10.78 4.22L10.88 4.1L10.72 4.1ZM16.75 8.87L13.21 4.22L13.11 4.1L16.96 4.1L21.1 8.75L21.21 8.87L16.75 8.87ZM15.6 9L12.1 4.39L12 4.26L8.39 9L15.6 9ZM11.92 4.57L8.73 8.75L8.64 8.87L15.35 8.87L15.26 8.75L12.07 4.57L12 4.46L11.92 4.57ZM2.55 9.85L10.28 18.01L10.48 17.88L7.23 9.85L2.55 9.85ZM8.16 9.85L11.88 19.01L12 19.3L15.83 9.85L8.16 9.85ZM13.71 18.01L21.24 10.06L21.44 9.85L16.77 9.85L13.51 17.88L13.71 18.01ZM10.24 17.61L7.14 9.98L2.84 9.98L2.96 10.1L10.13 17.67L10.37 17.92L10.24 17.61ZM20.98 9.98L16.85 9.98L13.75 17.61L13.62 17.92L13.86 17.67L21.03 10.1L21.15 9.98L20.98 9.98ZM12.06 18.8L15.59 10.1L15.65 9.98L8.35 9.98L8.4 10.1L11.93 18.8L12 18.97L12.06 18.8Z" fill="#FFFFFF" fill-opacity="1.000000" fill-rule="evenodd"/>
</svg>
