<svg width="21.000000" height="21.000000" viewBox="0 0 21 21" fill="none" xmlns="http://www.w3.org/2000/svg" xmlns:xlink="http://www.w3.org/1999/xlink">
	<desc>
			Created with Pixso.
	</desc>
	<defs>
		<clipPath id="clip179_4282">
			<rect id="ion:eye-outline" rx="0.000000" width="20.000000" height="20.000000" transform="translate(0.500000 0.500000)" fill="white" fill-opacity="0"/>
		</clipPath>
		<clipPath id="clip179_4281">
			<rect id="Property 1=Variant2" rx="0.000000" width="20.000000" height="20.000000" transform="translate(0.500000 0.500000)" fill="white" fill-opacity="0"/>
		</clipPath>
	</defs>
	<rect id="Property 1=Variant2" rx="0.000000" width="20.000000" height="20.000000" transform="translate(0.500000 0.500000)" fill="#FFFFFF" fill-opacity="0"/>
	<g clip-path="url(#clip179_4281)">
		<rect id="ion:eye-outline" rx="0.000000" width="20.000000" height="20.000000" transform="translate(0.500000 0.500000)" fill="#FFFFFF" fill-opacity="0"/>
		<g clip-path="url(#clip179_4282)">
			<path id="Vector" d="M1.42 10.14C1.35 10.25 1.31 10.37 1.31 10.5C1.31 10.63 1.34 10.76 1.41 10.87C3.4 13.97 6.63 16.4 10.48 16.4C14.29 16.4 17.59 13.97 19.58 10.85C19.65 10.75 19.68 10.62 19.68 10.5C19.68 10.37 19.65 10.25 19.58 10.14C17.58 7.06 14.26 4.59 10.48 4.59C7.28 4.59 4.01 6.44 1.42 10.14Z" stroke="#FFFFFF" stroke-opacity="1.000000" stroke-width="1.000000" stroke-linejoin="round"/>
			<path id="Vector" d="M10.5 13.78C8.68 13.78 7.21 12.31 7.21 10.5C7.21 8.68 8.68 7.21 10.5 7.21C12.31 7.21 13.78 8.68 13.78 10.5C13.78 12.31 12.31 13.78 10.5 13.78Z" stroke="#FFFFFF" stroke-opacity="1.000000" stroke-width="1.000000"/>
		</g>
	</g>
</svg>
