<svg width="100" height="22" viewBox="0 0 100 22" fill="none" xmlns="http://www.w3.org/2000/svg">
<path opacity="0.8" d="M9.97213 17H6.68413L0.756125 0.439999H3.73213L8.36413 13.544L12.9961 0.439999H15.9001L9.97213 17ZM18.9681 3.224C18.0801 3.224 17.4321 2.576 17.4321 1.712C17.4321 0.823999 18.0801 0.175999 18.9681 0.175999C19.8561 0.175999 20.5041 0.823999 20.5041 1.712C20.5041 2.576 19.8561 3.224 18.9681 3.224ZM20.2881 17H17.6241L17.6241 5.096H20.2881L20.2881 17ZM26.0147 21.704H23.3507L23.3507 5.096H25.8947V6.68C26.7587 5.528 28.1987 4.856 29.8787 4.856C33.2867 4.856 35.8787 7.568 35.8787 11.048C35.8787 14.528 33.2867 17.24 29.8787 17.24C28.2707 17.24 26.9027 16.616 26.0147 15.536V21.704ZM29.5907 14.72C31.6787 14.72 33.2147 13.184 33.2147 11.048C33.2147 8.888 31.6787 7.352 29.5907 7.352C27.5027 7.352 25.9907 8.888 25.9907 11.048C25.9907 13.184 27.5027 14.72 29.5907 14.72ZM43.7161 17.24C40.0681 17.24 37.6681 15.152 37.4761 12.056H40.3321C40.5721 13.832 41.7001 14.744 43.6921 14.744C45.4681 14.744 46.8121 14.024 46.8121 12.464C46.8121 11.048 45.7081 10.472 43.8121 10.04L42.4681 9.752C39.2281 9.008 37.7881 7.352 37.7881 5.072C37.7881 2.168 40.1401 0.199999 43.3801 0.199999C46.9321 0.199999 49.2121 2.408 49.3561 5.264H46.5001C46.3321 3.848 45.3241 2.696 43.3801 2.696C41.7001 2.696 40.5721 3.536 40.5721 4.976C40.5721 6.32 41.6281 6.968 43.5721 7.4L44.9161 7.688C48.2281 8.432 49.5961 10.064 49.5961 12.344C49.5961 15.44 47.1481 17.24 43.7161 17.24ZM58.8213 17H56.9973C54.2853 17 52.9893 15.824 52.9893 13.352V7.544H51.0213V5.096H52.3893C52.7493 5.096 52.9893 4.856 52.9893 4.424V2.12L55.6533 2.12V5.096H58.8213V7.544H55.6533V13.088C55.6533 14.024 56.1093 14.504 57.1893 14.504H58.8213V17ZM66.1513 17.24C62.7433 17.24 60.1513 14.528 60.1513 11.048C60.1513 7.568 62.7433 4.856 66.1513 4.856C67.8313 4.856 69.2473 5.528 70.1353 6.68V5.096H72.6793V17H70.1353V15.416C69.2713 16.568 67.8313 17.24 66.1513 17.24ZM66.4393 14.72C68.5273 14.72 70.0393 13.184 70.0393 11.048C70.0393 8.912 68.5273 7.352 66.4393 7.352C64.3513 7.352 62.8153 8.912 62.8153 11.048C62.8153 13.184 64.3513 14.72 66.4393 14.72ZM78.4288 17H75.7648V0.439999H78.4288V11L83.6128 5.096H86.8047L82.3888 10.16L87.0688 17H83.9248L80.6367 12.152L78.4288 14.552V17ZM93.5224 17.24C90.0184 17.24 87.3544 14.504 87.3544 11.048C87.3544 7.568 90.0184 4.856 93.4024 4.856C96.8824 4.856 99.3544 7.448 99.3544 10.976C99.3544 11.264 99.3544 11.576 99.3064 11.864H89.9944C90.3064 13.808 91.6504 14.912 93.5224 14.912C95.0104 14.912 96.1384 14.168 96.6664 13.04H99.4024C98.4904 15.632 96.1624 17.24 93.5224 17.24ZM93.3784 7.16C91.7224 7.16 90.4504 8.192 90.0664 9.92H96.6424C96.4264 8.312 95.1784 7.16 93.3784 7.16Z" fill="white"/>
</svg>
